<?xml version="1.0" encoding="UTF-8" standalone="no"?>
<!DOCTYPE svg PUBLIC "-//W3C//DTD SVG 1.1//EN"
 "http://www.w3.org/Graphics/SVG/1.1/DTD/svg11.dtd">
<!-- Generated by graphviz version 2.40.1 (0)
 -->
<!-- Title: g Pages: 1 -->
<svg width="628pt" height="67pt"
 viewBox="0.00 0.00 628.15 67.00" xmlns="http://www.w3.org/2000/svg" xmlns:xlink="http://www.w3.org/1999/xlink">
<g id="graph0" class="graph" transform="scale(1 1) rotate(0) translate(4 63)">
<title>g</title>
<polygon fill="#ffffff" stroke="transparent" points="-4,4 -4,-63 624.1546,-63 624.1546,4 -4,4"/>
<!-- input&#45;list -->
<g id="node1" class="node">
<title>input&#45;list</title>
<ellipse fill="none" stroke="#000000" cx="43.5461" cy="-18" rx="43.5923" ry="18"/>
<text text-anchor="middle" x="43.5461" y="-14.3" font-family="Times,serif" font-size="14.00" fill="#000000">input&#45;list</text>
</g>
<!-- ((`div` 2) . length) -->
<g id="node2" class="node">
<title>((`div` 2) . length)</title>
<ellipse fill="none" stroke="#000000" cx="199.7855" cy="-41" rx="76.8869" ry="18"/>
<text text-anchor="middle" x="199.7855" y="-37.3" font-family="Times,serif" font-size="14.00" fill="#000000">((`div` 2) . length)</text>
</g>
<!-- input&#45;list&#45;&gt;((`div` 2) . length) -->
<g id="edge1" class="edge">
<title>input&#45;list&#45;&gt;((`div` 2) . length)</title>
<path fill="none" stroke="#000000" d="M84.5962,-24.043C96.8915,-25.853 110.7818,-27.8978 124.5523,-29.9249"/>
<polygon fill="#000000" stroke="#000000" points="124.1305,-33.4005 134.5337,-31.3943 125.1501,-26.4751 124.1305,-33.4005"/>
</g>
<!-- take :: Int &#45;&gt; [a] &#45;&gt; [a] -->
<g id="node3" class="node">
<title>take :: Int &#45;&gt; [a] &#45;&gt; [a]</title>
<ellipse fill="none" stroke="#000000" cx="403.4706" cy="-18" rx="90.9839" ry="18"/>
<text text-anchor="middle" x="403.4706" y="-14.3" font-family="Times,serif" font-size="14.00" fill="#000000">take :: Int &#45;&gt; [a] &#45;&gt; [a]</text>
</g>
<!-- input&#45;list&#45;&gt;take :: Int &#45;&gt; [a] &#45;&gt; [a] -->
<g id="edge3" class="edge">
<title>input&#45;list&#45;&gt;take :: Int &#45;&gt; [a] &#45;&gt; [a]</title>
<path fill="none" stroke="#000000" d="M86.8796,-15.4253C98.6259,-14.8354 111.3426,-14.2952 123.0923,-14 191.2425,-12.2876 208.3154,-12.9268 276.4787,-14 285.2121,-14.1375 294.2821,-14.3282 303.3756,-14.5523"/>
<polygon fill="#000000" stroke="#000000" points="303.5484,-18.0578 313.6358,-14.8184 303.73,-11.0602 303.5484,-18.0578"/>
</g>
<!-- ((`div` 2) . length)&#45;&gt;take :: Int &#45;&gt; [a] &#45;&gt; [a] -->
<g id="edge2" class="edge">
<title>((`div` 2) . length)&#45;&gt;take :: Int &#45;&gt; [a] &#45;&gt; [a]</title>
<path fill="none" stroke="#000000" d="M269.0282,-33.1812C283.4588,-31.5517 298.8655,-29.8119 313.9095,-28.1132"/>
<polygon fill="#000000" stroke="#000000" points="314.7061,-31.5456 324.2502,-26.9455 313.9206,-24.5898 314.7061,-31.5456"/>
</g>
<!-- result&#45;list -->
<g id="node4" class="node">
<title>result&#45;list</title>
<ellipse fill="none" stroke="#000000" cx="575.3085" cy="-18" rx="44.6926" ry="18"/>
<text text-anchor="middle" x="575.3085" y="-14.3" font-family="Times,serif" font-size="14.00" fill="#000000">result&#45;list</text>
</g>
<!-- take :: Int &#45;&gt; [a] &#45;&gt; [a]&#45;&gt;result&#45;list -->
<g id="edge4" class="edge">
<title>take :: Int &#45;&gt; [a] &#45;&gt; [a]&#45;&gt;result&#45;list</title>
<path fill="none" stroke="#000000" d="M494.6726,-18C503.3707,-18 511.9963,-18 520.191,-18"/>
<polygon fill="#000000" stroke="#000000" points="520.3136,-21.5001 530.3136,-18 520.3136,-14.5001 520.3136,-21.5001"/>
</g>
</g>
</svg>
