<?xml version="1.0" encoding="UTF-8" standalone="no"?>
<!DOCTYPE svg PUBLIC "-//W3C//DTD SVG 1.1//EN"
 "http://www.w3.org/Graphics/SVG/1.1/DTD/svg11.dtd">
<!-- Generated by graphviz version 2.40.1 (0)
 -->
<!-- Title: g Pages: 1 -->
<svg width="373pt" height="98pt"
 viewBox="0.00 0.00 373.49 98.00" xmlns="http://www.w3.org/2000/svg" xmlns:xlink="http://www.w3.org/1999/xlink">
<g id="graph0" class="graph" transform="scale(1 1) rotate(0) translate(4 94)">
<title>g</title>
<polygon fill="#ffffff" stroke="transparent" points="-4,4 -4,-94 369.4867,-94 369.4867,4 -4,4"/>
<!-- f -->
<g id="node1" class="node">
<title>f</title>
<ellipse fill="none" stroke="#000000" cx="43.5461" cy="-72" rx="27" ry="18"/>
<text text-anchor="middle" x="43.5461" y="-68.3" font-family="Times,serif" font-size="14.00" fill="#000000">f</text>
</g>
<!-- map -->
<g id="node2" class="node">
<title>map</title>
<ellipse fill="none" stroke="#000000" cx="150.0923" cy="-45" rx="27" ry="18"/>
<text text-anchor="middle" x="150.0923" y="-41.3" font-family="Times,serif" font-size="14.00" fill="#000000">map</text>
</g>
<!-- f&#45;&gt;map -->
<g id="edge1" class="edge">
<title>f&#45;&gt;map</title>
<path fill="none" stroke="#000000" d="M68.7961,-65.6014C82.4958,-62.1297 99.652,-57.7821 114.6687,-53.9767"/>
<polygon fill="#000000" stroke="#000000" points="115.8205,-57.2956 124.6543,-51.4463 114.1009,-50.51 115.8205,-57.2956"/>
</g>
<!-- sum -->
<g id="node4" class="node">
<title>sum</title>
<ellipse fill="none" stroke="#000000" cx="240.0923" cy="-45" rx="27" ry="18"/>
<text text-anchor="middle" x="240.0923" y="-41.3" font-family="Times,serif" font-size="14.00" fill="#000000">sum</text>
</g>
<!-- map&#45;&gt;sum -->
<g id="edge3" class="edge">
<title>map&#45;&gt;sum</title>
<path fill="none" stroke="#000000" d="M177.0952,-45C185.1199,-45 194.0588,-45 202.6231,-45"/>
<polygon fill="#000000" stroke="#000000" points="202.7973,-48.5001 212.7973,-45 202.7973,-41.5001 202.7973,-48.5001"/>
</g>
<!-- input&#45;list -->
<g id="node3" class="node">
<title>input&#45;list</title>
<ellipse fill="none" stroke="#000000" cx="43.5461" cy="-18" rx="43.5923" ry="18"/>
<text text-anchor="middle" x="43.5461" y="-14.3" font-family="Times,serif" font-size="14.00" fill="#000000">input&#45;list</text>
</g>
<!-- input&#45;list&#45;&gt;map -->
<g id="edge2" class="edge">
<title>input&#45;list&#45;&gt;map</title>
<path fill="none" stroke="#000000" d="M80.8108,-27.4433C91.816,-30.2321 103.8259,-33.2756 114.709,-36.0335"/>
<polygon fill="#000000" stroke="#000000" points="114.1749,-39.5087 124.7283,-38.5725 115.8945,-32.7232 114.1749,-39.5087"/>
</g>
<!-- result -->
<g id="node5" class="node">
<title>result</title>
<ellipse fill="none" stroke="#000000" cx="334.2895" cy="-45" rx="31.3957" ry="18"/>
<text text-anchor="middle" x="334.2895" y="-41.3" font-family="Times,serif" font-size="14.00" fill="#000000">result</text>
</g>
<!-- sum&#45;&gt;result -->
<g id="edge4" class="edge">
<title>sum&#45;&gt;result</title>
<path fill="none" stroke="#000000" d="M267.338,-45C275.2184,-45 284.0065,-45 292.5556,-45"/>
<polygon fill="#000000" stroke="#000000" points="292.7882,-48.5001 302.7881,-45 292.7881,-41.5001 292.7882,-48.5001"/>
</g>
</g>
</svg>
